<svg id="Capa_1" enable-background="new 0 0 512 512" height="512" viewBox="0 0 512 512" width="512" xmlns="http://www.w3.org/2000/svg"><g><g><g><g><g><path d="m188.161 222.764h227.297c22.431 0 40.614 18.184 40.614 40.614v156.514c0 22.431-18.184 40.614-40.614 40.614h-65.314l-14.289 41.494-60.087-41.493h-87.607c-22.43 0-40.614-18.184-40.614-40.614v-156.515c0-22.43 18.184-40.614 40.614-40.614z" fill="#ffda8f"/></g></g></g><g><g><g><path d="m193.475 176.021v-125.407c0-22.43 18.184-40.614 40.614-40.614h227.297c22.43 0 40.614 18.184 40.614 40.614v156.514c0 22.431-18.184 40.614-40.614 40.614h-65.314l-14.29 41.494-60.087-41.494" fill="#ff7d97"/></g></g><g><g><g><path d="m431.823 125.2c0 43.996-35.666 79.662-79.662 79.662s-79.662-35.666-79.662-79.662 35.666-79.661 79.662-79.661c43.996-.001 79.662 35.665 79.662 79.661" fill="#ffe6b4"/></g></g></g><g><g><g><path d="m76.779 179.382h-26.165c-22.43 0-40.614 18.184-40.614 40.614v156.514c0 22.431 18.184 40.614 40.614 40.614h65.314l14.29 41.493 60.087-41.493h87.607c22.43 0 40.614-18.184 40.614-40.614v-156.514c0-22.43-18.184-40.614-40.614-40.614h-110.72" fill="#ccf5fc"/></g></g></g><g><g><g><g><g><path d="m163.497 251.523c.39.495 1.143.495 1.533 0 3.18-4.003 16.22-18.442 38.921-18.442 23.494 0 39.686 19.979 39.686 43.245 0 26.79-22.721 63.913-79.374 91.508-56.654-27.595-79.374-64.715-79.374-91.508 0-23.266 16.193-43.245 39.686-43.245 22.701 0 35.741 14.438 38.922 18.442z" fill="#ff9eb1"/></g></g></g></g></g></g></g><g><g><g><path d="m122.17 189.38c-4.049 0-7.816-2.556-9.3-6.323-1.531-3.886-.44-8.439 2.707-11.193 3.188-2.791 7.921-3.249 11.59-1.137 3.662 2.107 5.645 6.468 4.803 10.613-.939 4.616-5.08 8.04-9.8 8.04z"/></g></g><g><g><path d="m164.263 377.833c-1.498 0-2.997-.337-4.379-1.01-62.667-30.523-84.995-71.927-84.995-100.498 0-29.856 21.825-53.244 49.686-53.244 18.706 0 31.944 8.163 39.69 14.912 7.755-6.757 20.99-14.912 39.686-14.912 27.862 0 49.687 23.388 49.687 53.244 0 28.57-22.329 69.974-84.996 100.498-1.382.673-2.881 1.01-4.379 1.01zm-39.688-134.752c-19.282 0-29.686 17.128-29.686 33.244 0 20.908 18.274 54.128 69.374 80.329 51.1-26.201 69.375-59.422 69.375-80.329 0-16.116-10.404-33.244-29.687-33.244-18.04 0-28.358 11.223-31.091 14.662-2.069 2.626-5.212 4.15-8.596 4.15-3.372 0-6.504-1.513-8.598-4.152-2.736-3.442-13.053-14.66-31.091-14.66zm46.776 2.252h.01zm-14.117-.074c-.02.025-.04.05-.059.074.019-.024.039-.049.059-.074z"/></g></g><path d="m461.386 0h-227.298c-27.909 0-50.614 22.705-50.614 50.614v118.768h-16.283c-5.523 0-10 4.478-10 10s4.477 10 10 10h110.72c16.88 0 30.614 13.733 30.614 30.614v156.515c0 16.88-13.733 30.613-30.614 30.613h-87.607c-2.03 0-4.012.618-5.683 1.772l-49.241 34.004-9.998-29.031c-1.39-4.035-5.187-6.744-9.455-6.744h-65.313c-16.881-.001-30.614-13.734-30.614-30.614v-156.515c0-16.881 13.733-30.614 30.614-30.614h26.165c5.523 0 10-4.478 10-10s-4.477-10-10-10h-26.165c-27.908 0-50.614 22.705-50.614 50.614v156.515c0 27.908 22.706 50.613 50.614 50.613h58.181l11.967 34.75c1.018 2.958 3.362 5.269 6.334 6.245 1.02.335 2.072.499 3.12.499 2.006 0 3.992-.604 5.683-1.771l16.356-11.295c9.435 9.465 22.405 14.955 35.905 14.955h84.49l57.522 39.722c1.691 1.168 3.676 1.772 5.683 1.772 1.048 0 2.101-.165 3.121-.499 2.972-.977 5.315-3.287 6.334-6.245l11.967-34.749h58.182c27.909 0 50.614-22.705 50.614-50.614v-156.516c0-1.957-.112-3.901-.333-5.825 25.878-2.216 46.26-23.983 46.26-50.425v-156.514c0-27.909-22.706-50.614-50.614-50.614zm-178.886 125.199c0-38.411 31.25-69.661 69.662-69.661s69.662 31.25 69.662 69.661c0 38.412-31.25 69.662-69.662 69.662s-69.662-31.25-69.662-69.662zm163.573 294.694c0 16.881-13.733 30.614-30.614 30.614h-65.314c-4.268 0-8.065 2.709-9.455 6.744l-9.998 29.031-49.242-34.004c-1.67-1.153-3.652-1.771-5.682-1.771h-87.607c-7.055 0-13.686-2.349-19.028-6.61l24.289-16.773h84.49c27.909 0 50.614-22.705 50.614-50.613v-111.9l47.575 32.853c1.691 1.168 3.677 1.772 5.683 1.772 1.048 0 2.101-.165 3.121-.499 2.972-.977 5.316-3.287 6.334-6.245l11.967-34.749h42.35c.343 1.846.519 3.729.519 5.636v156.514zm45.927-212.765c0 16.881-13.733 30.614-30.614 30.614h-65.314c-4.268 0-8.066 2.709-9.455 6.744l-9.998 29.031-48.093-33.211v-20.31c0-2.895-.248-5.733-.717-8.497 7.747 2.189 15.915 3.362 24.353 3.362 49.439 0 89.662-40.223 89.662-89.662s-40.222-89.661-89.662-89.661-89.662 40.222-89.662 89.661c0 16.054 4.245 31.134 11.666 44.183h-70.691v-118.768c0-16.881 13.733-30.614 30.614-30.614h227.297c16.881 0 30.614 13.733 30.614 30.614z"/><g><g><g><g><g><path d="m330.564 123.365c-5.523 0-10-4.477-10-10v-8.719c0-5.522 4.477-10 10-10s10 4.478 10 10v8.719c0 5.523-4.478 10-10 10z"/></g></g></g><g><g><g><path d="m373.759 123.365c-5.523 0-10-4.477-10-10v-8.719c0-5.522 4.477-10 10-10s10 4.478 10 10v8.719c0 5.523-4.477 10-10 10z"/></g></g></g></g><g><g><g><path d="m352.161 168.165c-9.336 0-18.112-3.635-24.713-10.237-3.905-3.905-3.905-10.236 0-14.142 3.906-3.904 10.238-3.905 14.142.001 2.824 2.823 6.578 4.378 10.571 4.378s7.747-1.555 10.571-4.379c3.905-3.904 10.237-3.904 14.142 0 3.905 3.905 3.906 10.237.001 14.143-6.602 6.601-15.378 10.236-24.714 10.236z"/></g></g></g></g></g></g></svg>